<svg width="79" height="64" viewBox="0 0 79 64" fill="none" xmlns="http://www.w3.org/2000/svg">
<path fill-rule="evenodd" clip-rule="evenodd" d="M39.7619 15.3232L48.5541 6.81003C60.9749 -5.05254 71.3023 6.81004 63.9057 15.3232H39.7619Z" fill="#FFAD33"/>
<path fill-rule="evenodd" clip-rule="evenodd" d="M38.9245 14.2067L47.7167 5.83317C52.7409 1.08814 57.6255 -0.167916 61.254 0.669442C62.7892 1.08812 64.1848 1.78592 65.3013 2.76284C66.4178 3.73975 67.2551 4.9958 67.6738 6.3914C68.6507 9.46171 68.0925 13.0903 65.3013 16.3001C65.0222 16.5793 64.6035 16.8584 64.1848 16.8584H39.9014C39.064 16.8584 38.3663 16.1606 38.3663 15.3232C38.3663 14.9045 38.5058 14.4859 38.9245 14.2067ZM49.6706 7.92656L43.5299 13.788H63.3474C65.0221 11.5551 65.3012 9.1826 64.743 7.22876C64.4639 6.25185 63.9057 5.55403 63.2079 4.85623C62.5101 4.15843 61.5331 3.73975 60.5562 3.46064C57.6255 2.9024 53.8574 4.01889 49.6706 7.92656Z" fill="#2D3342"/>
<path fill-rule="evenodd" clip-rule="evenodd" d="M39.7619 15.3232L30.9696 6.81003C18.5487 -5.05254 8.22132 6.81004 15.618 15.3232H39.7619Z" fill="#FFAD33"/>
<path fill-rule="evenodd" clip-rule="evenodd" d="M36.1333 13.788L29.9927 7.92654C25.8059 3.87931 22.0378 2.90239 19.2466 3.60018C18.2697 3.8793 17.2927 4.29798 16.5949 4.99578C15.8971 5.69358 15.3389 6.3914 15.0598 7.36831C14.362 9.32215 14.7807 11.6946 16.4554 13.9276H36.1333V13.788ZM31.9465 5.83315L40.7387 14.2067C41.0178 14.4858 41.297 14.9045 41.297 15.3232C41.297 16.1605 40.5992 16.8584 39.7619 16.8584H15.4785C15.0598 16.8584 14.6411 16.7188 14.362 16.3001C11.5708 13.0903 11.0125 9.32213 11.9895 6.39138C12.4081 4.99578 13.2455 3.73974 14.362 2.76282C15.4785 1.7859 16.7345 1.0881 18.4092 0.669423C22.1773 -0.167935 27.0619 0.94856 31.9465 5.83315Z" fill="#2D3342"/>
<path fill-rule="evenodd" clip-rule="evenodd" d="M70.8837 61.9361H8.63999V35.1407H4.4532C3.19716 35.1407 2.22028 34.1638 2.22028 32.9077V17.4166C2.22028 16.1606 3.19716 15.1836 4.4532 15.1836H74.9308C76.1869 15.1836 77.1638 16.1606 77.1638 17.4166V32.9077C77.1638 34.1638 76.1869 35.1407 74.9308 35.1407H70.744V61.9361H70.8837Z" fill="#FF8000"/>
<path fill-rule="evenodd" clip-rule="evenodd" d="M70.8837 63.4713H8.63998C7.80263 63.4713 7.10486 62.7735 7.10486 61.9361V36.6759H4.45319C3.47628 36.6759 2.49941 36.2572 1.80161 35.5594C1.10381 34.8616 0.68515 34.0242 0.68515 32.9077V17.4166C0.68515 16.4397 1.10381 15.4628 1.80161 14.765L1.94114 14.6254C2.63893 14.0672 3.47628 13.6485 4.45319 13.6485H74.9308C75.9077 13.6485 76.8847 14.0672 77.5825 14.765C78.2803 15.4628 78.699 16.3001 78.699 17.4166V32.9077C78.699 33.8846 78.2803 34.8616 77.5825 35.5594C76.8847 36.2572 76.0473 36.6759 74.9308 36.6759H72.2792V61.9361C72.4188 62.7735 71.721 63.4713 70.8837 63.4713ZM10.1752 60.401H69.3484V35.1407C69.3484 34.3033 70.0463 33.6055 70.8837 33.6055H75.0704C75.21 33.6055 75.4891 33.466 75.4891 33.466C75.6287 33.3264 75.6286 33.1869 75.6286 33.0473V17.5562C75.6286 17.4166 75.4891 17.1375 75.4891 17.1375C75.3495 16.9979 75.21 16.9979 75.0704 16.9979H4.5928C4.45324 16.9979 4.3137 16.9979 4.17414 17.1375C4.03458 17.2771 4.03453 17.4166 4.03453 17.5562V33.0473C4.03453 33.1869 4.17414 33.466 4.17414 33.6055C4.3137 33.7451 4.45321 33.7451 4.73233 33.7451H8.91912C9.75648 33.7451 10.4543 34.4429 10.4543 35.2803V60.401H10.1752Z" fill="#2D3342"/>
<path d="M47.0189 15.3232H32.6443V61.9361H47.0189V15.3232Z" fill="#FFAD33"/>
<path fill-rule="evenodd" clip-rule="evenodd" d="M47.0189 63.4713H32.6443C31.8069 63.4713 31.1092 62.7735 31.1092 61.9361V15.3232C31.1092 14.4858 31.8069 13.788 32.6443 13.788H47.0189C47.8563 13.788 48.5541 14.4858 48.5541 15.3232V61.9361C48.4146 62.7735 47.8563 63.4713 47.0189 63.4713ZM34.1795 60.401H45.4838V16.8584H34.1795V60.401Z" fill="#2D3342"/>
<path fill-rule="evenodd" clip-rule="evenodd" d="M8.77959 36.6759C7.94223 36.6759 7.24438 35.978 7.24438 35.1407C7.24438 34.3033 7.94223 33.6055 8.77959 33.6055H71.0232C71.8605 33.6055 72.5584 34.3033 72.5584 35.1407C72.5584 35.978 71.8605 36.6759 71.0232 36.6759H8.77959Z" fill="#2D3342"/>
<path fill-rule="evenodd" clip-rule="evenodd" d="M37.6684 13.2298C38.5058 13.5089 38.7849 14.3462 38.5058 15.1836C38.2267 16.021 37.3893 16.3001 36.5519 16.021L21.4795 10.4386C20.6421 10.1595 20.363 9.32212 20.6422 8.48476C20.9213 7.6474 21.7586 7.36827 22.5959 7.64739L37.6684 13.2298Z" fill="#2D3342"/>
<path fill-rule="evenodd" clip-rule="evenodd" d="M42.9717 16.021C42.1344 16.3001 41.297 15.8814 41.0179 15.1836C40.7388 14.3463 41.1575 13.5089 41.8553 13.2298L56.9277 7.6474C57.7651 7.36828 58.6024 7.78697 58.8815 8.48477C59.1606 9.32213 58.742 10.1595 58.0442 10.4386L42.9717 16.021Z" fill="#2D3342"/>
</svg>
