<svg width="64" height="64" viewBox="0 0 64 64" fill="none" xmlns="http://www.w3.org/2000/svg">
<path d="M49 39H12C5.92 39 1 34.08 1 28V32C1 38.08 5.92 43.01 12 43.01H49C56.73 43.01 63 36.74 63 29V25C63 32.73 56.73 39 49 39Z" fill="#CCD1D9"/>
<path d="M13.11 17C14.1 7.45 22.18 0 32 0C39.64 0 46.22 4.51 49.24 11.01C56.86 11.14 63 17.35 63 25C63 32.73 56.73 39 49 39H12C5.92 39 1 34.08 1 28C1 21.93 5.92 17 12 17H13.1H13.11Z" fill="#E6E9ED"/>
<path d="M20 49.991C18.346 49.991 17 48.645 17 46.991C17 45.337 18.346 43.991 20 43.991C21.654 43.991 23 45.337 23 46.991C23 48.645 21.654 49.991 20 49.991ZM20 45.991C19.448 45.991 19 46.439 19 46.991C19 47.543 19.448 47.991 20 47.991C20.552 47.991 21 47.543 21 46.991C21 46.439 20.552 45.991 20 45.991Z" fill="#5D9CEC"/>
<path d="M32 49.991C30.346 49.991 29 48.645 29 46.991C29 45.337 30.346 43.991 32 43.991C33.654 43.991 35 45.337 35 46.991C35 48.645 33.654 49.991 32 49.991ZM32 45.991C31.448 45.991 31 46.439 31 46.991C31 47.543 31.448 47.991 32 47.991C32.552 47.991 33 47.543 33 46.991C33 46.439 32.552 45.991 32 45.991Z" fill="#5D9CEC"/>
<path d="M44 49.991C42.346 49.991 41 48.645 41 46.991C41 45.337 42.346 43.991 44 43.991C45.654 43.991 47 45.337 47 46.991C47 48.645 45.654 49.991 44 49.991ZM44 45.991C43.448 45.991 43 46.439 43 46.991C43 47.543 43.448 47.991 44 47.991C44.552 47.991 45 47.543 45 46.991C45 46.439 44.552 45.991 44 45.991Z" fill="#5D9CEC"/>
<path d="M14 49.991C13.447 49.991 13 49.544 13 48.991V44.991C13 44.438 13.447 43.991 14 43.991C14.553 43.991 15 44.438 15 44.991V48.991C15 49.544 14.553 49.991 14 49.991Z" fill="#5D9CEC"/>
<path d="M26 49.991C25.447 49.991 25 49.544 25 48.991V44.991C25 44.438 25.447 43.991 26 43.991C26.553 43.991 27 44.438 27 44.991V48.991C27 49.544 26.553 49.991 26 49.991Z" fill="#5D9CEC"/>
<path d="M38 49.991C37.447 49.991 37 49.544 37 48.991V44.991C37 44.438 37.447 43.991 38 43.991C38.553 43.991 39 44.438 39 44.991V48.991C39 49.544 38.553 49.991 38 49.991Z" fill="#5D9CEC"/>
<path d="M50 49.991C49.447 49.991 49 49.544 49 48.991V44.991C49 44.438 49.447 43.991 50 43.991C50.553 43.991 51 44.438 51 44.991V48.991C51 49.544 50.553 49.991 50 49.991Z" fill="#5D9CEC"/>
<path d="M18 56.991C16.346 56.991 15 55.645 15 53.991C15 52.337 16.346 50.991 18 50.991C19.654 50.991 21 52.337 21 53.991C21 55.645 19.654 56.991 18 56.991ZM18 52.991C17.448 52.991 17 53.439 17 53.991C17 54.543 17.448 54.991 18 54.991C18.552 54.991 19 54.543 19 53.991C19 53.439 18.552 52.991 18 52.991Z" fill="#5D9CEC"/>
<path d="M30 56.991C28.346 56.991 27 55.645 27 53.991C27 52.337 28.346 50.991 30 50.991C31.654 50.991 33 52.337 33 53.991C33 55.645 31.654 56.991 30 56.991ZM30 52.991C29.448 52.991 29 53.439 29 53.991C29 54.543 29.448 54.991 30 54.991C30.552 54.991 31 54.543 31 53.991C31 53.439 30.552 52.991 30 52.991Z" fill="#5D9CEC"/>
<path d="M42 56.991C40.346 56.991 39 55.645 39 53.991C39 52.337 40.346 50.991 42 50.991C43.654 50.991 45 52.337 45 53.991C45 55.645 43.654 56.991 42 56.991ZM42 52.991C41.448 52.991 41 53.439 41 53.991C41 54.543 41.448 54.991 42 54.991C42.552 54.991 43 54.543 43 53.991C43 53.439 42.552 52.991 42 52.991Z" fill="#5D9CEC"/>
<path d="M24 56.991C23.447 56.991 23 56.544 23 55.991V51.991C23 51.438 23.447 50.991 24 50.991C24.553 50.991 25 51.438 25 51.991V55.991C25 56.544 24.553 56.991 24 56.991Z" fill="#5D9CEC"/>
<path d="M36 56.991C35.447 56.991 35 56.544 35 55.991V51.991C35 51.438 35.447 50.991 36 50.991C36.553 50.991 37 51.438 37 51.991V55.991C37 56.544 36.553 56.991 36 56.991Z" fill="#5D9CEC"/>
<path d="M48 56.991C47.447 56.991 47 56.544 47 55.991V51.991C47 51.438 47.447 50.991 48 50.991C48.553 50.991 49 51.438 49 51.991V55.991C49 56.544 48.553 56.991 48 56.991Z" fill="#5D9CEC"/>
<path d="M26 64C24.346 64 23 62.654 23 61C23 59.346 24.346 58 26 58C27.654 58 29 59.346 29 61C29 62.654 27.654 64 26 64ZM26 60C25.448 60 25 60.448 25 61C25 61.552 25.448 62 26 62C26.552 62 27 61.552 27 61C27 60.448 26.552 60 26 60Z" fill="#5D9CEC"/>
<path d="M38 64C36.346 64 35 62.654 35 61C35 59.346 36.346 58 38 58C39.654 58 41 59.346 41 61C41 62.654 39.654 64 38 64ZM38 60C37.448 60 37 60.448 37 61C37 61.552 37.448 62 38 62C38.552 62 39 61.552 39 61C39 60.448 38.552 60 38 60Z" fill="#5D9CEC"/>
<path d="M20 64C19.447 64 19 63.553 19 63V59C19 58.447 19.447 58 20 58C20.553 58 21 58.447 21 59V63C21 63.553 20.553 64 20 64Z" fill="#5D9CEC"/>
<path d="M32 64C31.447 64 31 63.553 31 63V59C31 58.447 31.447 58 32 58C32.553 58 33 58.447 33 59V63C33 63.553 32.553 64 32 64Z" fill="#5D9CEC"/>
<path d="M44 64C43.447 64 43 63.553 43 63V59C43 58.447 43.447 58 44 58C44.553 58 45 58.447 45 59V63C45 63.553 44.553 64 44 64Z" fill="#5D9CEC"/>
<path d="M31.997 33.014C28.966 33.014 26.133 31.662 24.223 29.302C23.875 28.873 23.942 28.243 24.371 27.896C24.8 27.547 25.431 27.616 25.777 28.044C27.305 29.932 29.572 31.015 31.997 31.015C36.408 31.015 39.997 27.426 39.997 23.015C39.997 22.463 40.444 22.015 40.997 22.015C41.55 22.015 41.997 22.463 41.997 23.015C41.997 28.529 37.511 33.014 31.997 33.014Z" fill="#CCD1D9"/>
<path d="M42.501 26.017C42.197 26.017 41.897 25.879 41.7 25.618L40.197 23.616C39.866 23.175 39.955 22.548 40.396 22.216C40.838 21.886 41.465 21.974 41.796 22.415L43.299 24.417C43.63 24.858 43.541 25.485 43.1 25.817C42.921 25.951 42.71 26.017 42.501 26.017Z" fill="#CCD1D9"/>
<path d="M39.001 25.515C38.697 25.515 38.397 25.377 38.2 25.116C37.869 24.675 37.958 24.048 38.399 23.716L40.396 22.216C40.838 21.886 41.465 21.974 41.796 22.415C42.127 22.856 42.038 23.483 41.597 23.815L39.6 25.315C39.421 25.449 39.21 25.515 39.001 25.515Z" fill="#CCD1D9"/>
<path d="M22.999 24.019C22.446 24.019 21.999 23.571 21.999 23.019C21.999 17.504 26.485 13.018 31.999 13.018C35.03 13.018 37.863 14.372 39.773 16.731C40.121 17.161 40.054 17.79 39.625 18.137C39.196 18.486 38.565 18.418 38.219 17.989C36.691 16.101 34.424 15.018 31.999 15.018C27.588 15.018 23.999 18.608 23.999 23.019C23.999 23.57 23.552 24.019 22.999 24.019Z" fill="#CCD1D9"/>
<path d="M23 24.019C22.695 24.019 22.395 23.881 22.198 23.619L20.699 21.617C20.368 21.175 20.459 20.548 20.9 20.218C21.343 19.886 21.969 19.977 22.3 20.418L23.799 22.42C24.13 22.862 24.039 23.489 23.598 23.819C23.419 23.953 23.208 24.019 23 24.019Z" fill="#CCD1D9"/>
<path d="M23 24.019C22.696 24.019 22.396 23.881 22.2 23.621C21.868 23.18 21.956 22.553 22.397 22.221L24.394 20.717C24.837 20.384 25.463 20.474 25.794 20.914C26.126 21.355 26.038 21.982 25.597 22.314L23.6 23.818C23.421 23.953 23.209 24.019 23 24.019Z" fill="#CCD1D9"/>
</svg>
