<svg width="128" height="128" viewBox="0 0 128 128" fill="none" xmlns="http://www.w3.org/2000/svg">
  <!-- Gear - DevOps Automation -->
  <circle cx="64" cy="64" r="30" stroke="#007BFF" stroke-width="6" fill="none"/>
  <path d="M64 30V20M64 108V98M30 64H20M108 64H98M46.6 46.6L39 39M88.4 88.4L96 96M88.4 39L96 31.6M39 96L46.6 88.4" stroke="#007BFF" stroke-width="4"/>

  <!-- CI/CD Arrows -->
  <path d="M25 100L35 90H28V78H42V90H35L45 100" stroke="#FF6F00" stroke-width="3" fill="none"/>

  <!-- Container (Docker style) -->
  <rect x="75" y="25" width="36" height="18" rx="2" ry="2" fill="#40E0D0"/>
  <rect x="75" y="45" width="36" height="18" rx="2" ry="2" fill="#40E0D0"/>
  <rect x="75" y="65" width="36" height="18" rx="2" ry="2" fill="#40E0D0"/>

  <!-- IaC - Terminal code box -->
  <rect x="15" y="20" width="30" height="20" rx="2" ry="2" stroke="#333333" stroke-width="2" fill="none"/>
  <path d="M20 30 L25 25 L20 20" stroke="#333333" stroke-width="2" fill="none"/>
  <path d="M28 20 H30" stroke="#333333" stroke-width="2"/>

  <!-- Label text (optional, can be removed for cleaner design) -->
  <text x="64" y="122" font-size="10" fill="#333" text-anchor="middle" font-family="sans-serif">DevOps Automation</text>
</svg>
