<svg width="105" height="80" viewBox="0 0 105 80" fill="none" xmlns="http://www.w3.org/2000/svg">
<path fill-rule="evenodd" clip-rule="evenodd" d="M90.7138 41.7383C89.8764 41.7383 89.1786 41.0405 89.1786 40.2031C89.1786 39.3658 89.8764 38.668 90.7138 38.668H103.414C104.251 38.668 104.949 39.3658 104.949 40.2031C104.949 41.0405 104.251 41.7383 103.414 41.7383H90.7138ZM84.4336 53.88C83.8754 53.3218 83.8754 52.3448 84.4336 51.7866C84.9918 51.2284 85.9688 51.2284 86.527 51.7866L95.4588 60.7184C96.017 61.2766 96.017 62.2536 95.4588 62.8118C94.9006 63.37 93.9237 63.37 93.3654 62.8118L84.4336 53.88ZM86.527 28.6197C85.9688 29.1779 84.9918 29.1779 84.4336 28.6197C83.8754 28.0614 83.8754 27.0845 84.4336 26.5263L93.3654 17.5945C93.9237 17.0362 94.9006 17.0362 95.4588 17.5945C96.017 18.1527 96.017 19.1296 95.4588 19.6879L86.527 28.6197Z" fill="#2D3342"/>
<path fill-rule="evenodd" clip-rule="evenodd" d="M73.2688 50.1119H70.4776C66.7095 50.1119 63.4997 47.0416 63.4997 43.1339V37.2724C63.4997 33.5043 66.57 30.2944 70.4776 30.2944H73.2688C77.037 30.2944 80.2468 33.3647 80.2468 37.2724V43.1339C80.1073 47.0416 77.037 50.1119 73.2688 50.1119Z" fill="#3E68D4"/>
<path fill-rule="evenodd" clip-rule="evenodd" d="M73.2688 51.647H70.4776C68.1051 51.647 66.0117 50.6701 64.4766 49.1349C62.9414 47.5998 61.9645 45.5064 61.9645 43.1339V37.2724C61.9645 34.8999 62.9414 32.8065 64.4766 31.2713C66.0117 29.7362 68.1051 28.7592 70.4776 28.7592H73.2688C75.6413 28.7592 77.7347 29.7362 79.2699 31.2713C80.805 32.8065 81.7819 34.8999 81.7819 37.2724V43.1339C81.7819 45.5064 80.805 47.5998 79.2699 49.1349C77.5952 50.6701 75.5018 51.647 73.2688 51.647ZM70.4776 48.5767H73.2688C74.804 48.5767 76.1996 48.0185 77.1765 47.0416C78.1534 46.0646 78.7116 44.6691 78.7116 43.1339V37.2724C78.7116 35.7372 78.1534 34.3416 77.1765 33.3647C76.1996 32.3878 74.804 31.8296 73.2688 31.8296H70.4776C68.9425 31.8296 67.5469 32.3878 66.57 33.3647C65.593 34.3416 65.0348 35.7372 65.0348 37.2724V43.1339C65.0348 44.6691 65.593 46.0646 66.57 47.0416C67.5469 48.0185 68.9425 48.5767 70.4776 48.5767Z" fill="#2D3342"/>
<path d="M30.424 25.4098H5.86151V54.7173H30.424V25.4098Z" fill="#84CEEB"/>
<path fill-rule="evenodd" clip-rule="evenodd" d="M30.5636 56.1129H5.86151C5.02415 56.1129 4.32635 55.4152 4.32635 54.5778V25.2703C4.32635 24.4329 5.02415 23.7351 5.86151 23.7351H30.424C31.2614 23.7351 31.9592 24.4329 31.9592 25.2703V54.5778C31.9592 55.4152 31.2614 56.1129 30.5636 56.1129ZM7.39666 53.0426H29.0284V26.8054H7.39666V53.0426Z" fill="#2D3342"/>
<path fill-rule="evenodd" clip-rule="evenodd" d="M30.5636 54.5778L65.5931 77.8842V2.38248L30.5636 25.4098V54.5778Z" fill="white"/>
<path fill-rule="evenodd" clip-rule="evenodd" d="M31.9591 53.7404L64.0579 75.0931V5.03411L31.9591 26.1076V53.7404ZM64.7557 79.1403L29.7262 55.9734C29.3075 55.6943 29.0284 55.2756 29.0284 54.7173V25.4098C29.0284 24.9912 29.3075 24.4329 29.7262 24.1538L64.7557 1.12644C65.0348 0.986876 65.3139 0.847321 65.593 0.847321C66.4304 0.847321 67.1282 1.54513 67.1282 2.38249V77.8843C67.1282 78.1634 66.9886 78.4425 66.8491 78.7216C66.4304 79.4194 65.4535 79.559 64.7557 79.1403Z" fill="#2D3342"/>
<path fill-rule="evenodd" clip-rule="evenodd" d="M65.5931 78.0238C62.1041 78.0238 59.3129 75.2326 59.3129 71.7436V8.38355C59.3129 4.89456 62.1041 2.10336 65.5931 2.10336C69.082 2.10336 71.8732 4.89456 71.8732 8.38355V71.7436C71.8732 75.2326 69.082 78.0238 65.5931 78.0238Z" fill="#84CEEB"/>
<path fill-rule="evenodd" clip-rule="evenodd" d="M65.593 79.559C63.4997 79.559 61.5458 78.7216 60.1502 77.326C58.7546 75.9304 57.9173 73.9766 57.9173 71.8832V8.5231C57.9173 6.42971 58.7546 4.47588 60.1502 3.08028C61.5458 1.68469 63.4997 0.847321 65.593 0.847321C67.6864 0.847321 69.6403 1.68469 71.0359 3.08028C72.4315 4.47588 73.2688 6.42971 73.2688 8.5231V71.8832C73.2688 73.9766 72.4315 75.9304 71.0359 77.326C69.6403 78.7216 67.6864 79.559 65.593 79.559ZM62.2436 75.2326C63.081 76.07 64.337 76.6282 65.593 76.6282C66.8491 76.6282 68.1051 76.07 68.9425 75.2326C69.7798 74.3953 70.3381 73.1392 70.3381 71.8832V8.5231C70.3381 7.26707 69.7798 6.01104 68.9425 5.17368C68.1051 4.33632 66.8491 3.77808 65.593 3.77808C64.337 3.77808 63.081 4.33632 62.2436 5.17368C61.4063 6.01104 60.848 7.26707 60.848 8.5231V71.8832C60.848 73.1392 61.4063 74.3953 62.2436 75.2326Z" fill="#2D3342"/>
<path fill-rule="evenodd" clip-rule="evenodd" d="M5.8615 73.6975C3.48899 73.6975 1.53516 71.7436 1.53516 69.3711V29.5966C1.53516 27.2241 3.48899 25.2703 5.8615 25.2703C8.23402 25.2703 10.1879 27.2241 10.1879 29.5966V69.3711C10.1879 71.7436 8.37358 73.6975 5.8615 73.6975Z" fill="#3E68D4"/>
<path fill-rule="evenodd" clip-rule="evenodd" d="M5.8615 75.2326C4.18679 75.2326 2.79119 74.5348 1.67471 73.5579C0.558234 72.4414 0 71.0458 0 69.3711V29.5966C0 28.0615 0.697794 26.5263 1.67471 25.4098C2.79119 24.2933 4.18679 23.7351 5.8615 23.7351C7.53622 23.7351 8.93182 24.4329 10.0483 25.4098L10.1878 25.5494C11.1648 26.6658 11.8626 28.0615 11.8626 29.5966V69.3711C11.8626 71.0458 11.1648 72.4414 10.1878 73.5579C8.93181 74.5348 7.53622 75.2326 5.8615 75.2326ZM3.90766 71.325C4.4659 71.8832 5.1637 72.1623 5.8615 72.1623C6.69886 72.1623 7.39666 71.8832 7.81534 71.325C8.37358 70.7667 8.6527 70.0689 8.6527 69.3711V29.5966C8.6527 28.8988 8.37358 28.201 7.9549 27.6428C7.39666 27.0845 6.69886 26.8054 6.00106 26.8054C5.1637 26.8054 4.4659 27.0845 4.04722 27.6428C3.48898 28.201 3.20987 28.8988 3.20987 29.5966V69.3711C3.07031 70.2085 3.48899 70.9063 3.90766 71.325Z" fill="#2D3342"/>
</svg>
