<svg width="101" height="100" viewBox="0 0 101 100" fill="none" xmlns="http://www.w3.org/2000/svg">
<rect x="0.640625" y="0.0900879" width="99.601" height="99.601" rx="49.8005" fill="url(#paint0_linear_2_788)"/>
<path d="M29.0618 71.2699C31.3653 73.6423 35.4464 73.4656 37.5367 70.9073L43.5856 63.7235C46.6084 65.5175 50.0679 66.4754 53.6749 66.4754C58.9687 66.4754 63.9455 64.4139 67.6888 60.6707C71.432 56.9275 73.4936 51.9506 73.4936 46.6568C73.4936 41.363 71.432 36.3862 67.6888 32.6428C63.9456 28.8995 58.9687 26.8381 53.6749 26.8381C48.3812 26.8381 43.4042 28.8996 39.661 32.6428C35.9178 36.3861 33.8562 41.363 33.8562 46.6568C33.8562 50.2638 34.8142 53.7232 36.6081 56.746L29.4244 62.7949C26.8653 64.8859 26.6905 68.9682 29.0618 71.2699ZM36.558 46.6568C36.558 37.2184 44.2366 29.5397 53.6749 29.5397C63.1133 29.5397 70.792 37.2184 70.792 46.6568C70.792 56.0951 63.1133 63.7737 53.6749 63.7737C44.2366 63.7737 36.558 56.0951 36.558 46.6568ZM38.151 58.9788C38.6191 59.5663 39.122 60.1316 39.6611 60.6707C40.2002 61.2098 40.7655 61.7127 41.3529 62.1808L37.8794 66.3059L34.0258 62.4524L38.151 58.9788ZM30.08 67.0682C30.117 66.2031 30.5021 65.4193 31.1646 64.8615L31.9516 64.1988L36.1328 68.3801L35.4701 69.1671C34.9123 69.8295 34.1287 70.2147 33.2634 70.2517C31.5259 70.3678 29.9641 68.8059 30.08 67.0682Z" fill="white"/>
<path d="M50.4892 52.274H54.0976C54.7691 52.274 55.3133 51.7297 55.3133 51.0583C55.3133 50.3868 54.7691 49.8425 54.0976 49.8425H51.7049V47.9921H53.8316C54.503 47.9921 55.0473 47.4478 55.0473 46.7763C55.0473 46.1049 54.503 45.5606 53.8316 45.5606H51.7049V43.7102H54.0976C54.7691 43.7102 55.3133 43.1659 55.3133 42.4945C55.3133 41.823 54.7691 41.2787 54.0976 41.2787H50.4892C49.8177 41.2787 49.2734 41.823 49.2734 42.4945V51.0583C49.2734 51.7297 49.8177 52.274 50.4892 52.274Z" fill="white"/>
<path d="M47.1456 49.4384C47.3704 48.1794 46.8058 46.5372 44.5467 45.704L42.5936 44.9253C42.064 44.7002 42.0939 43.9296 42.6439 43.7602C42.6497 43.7584 42.6556 43.7566 42.6615 43.7549C43.8189 43.4063 44.9082 44.2742 44.9082 44.2742C45.429 44.7001 46.201 44.6781 46.6424 44.1704C47.1011 43.6454 47.0199 42.8402 46.4728 42.4129C46.3889 42.3424 44.3906 40.6945 41.9602 41.4267C39.3717 42.1492 38.7392 45.6094 41.1163 46.9352C41.1664 46.9576 42.3607 47.4891 43.7053 47.9852C43.976 48.0849 44.8514 48.4541 44.752 49.011C44.6874 49.3726 44.2177 49.882 43.3755 49.882C42.5689 49.882 41.7933 49.5641 41.2919 49.0298C40.8314 48.5392 40.0633 48.4598 39.559 48.9052C39.0504 49.3546 39.0084 50.1315 39.4629 50.633C40.4307 51.7009 41.8568 52.3135 43.3755 52.3135C45.2626 52.3135 46.8482 51.1043 47.1456 49.4384Z" fill="white"/>
<path d="M62.6646 52.3135C65.7177 52.3135 68.2017 49.8295 68.2017 46.7764C68.2017 43.7232 65.7177 41.2393 62.6646 41.2393C59.6114 41.2393 57.1274 43.7232 57.1274 46.7764C57.1274 49.8296 59.6113 52.3135 62.6646 52.3135ZM62.6646 43.6708C64.3771 43.6708 65.7702 45.064 65.7702 46.7765C65.7702 48.489 64.3771 49.8821 62.6646 49.8821C60.9521 49.8821 59.5589 48.489 59.5589 46.7765C59.5589 45.064 60.9521 43.6708 62.6646 43.6708Z" fill="white"/>
<defs>
<linearGradient id="paint0_linear_2_788" x1="2.77827" y1="2.86209" x2="102.326" y2="88.2438" gradientUnits="userSpaceOnUse">
<stop stop-color="#B469EE"/>
<stop offset="0.46" stop-color="#C96D1C"/>
<stop offset="1" stop-color="#4F20DB"/>
</linearGradient>
</defs>
</svg>
