<svg width="100" height="100" viewBox="0 0 100 100" fill="none" xmlns="http://www.w3.org/2000/svg">
<rect y="0.0900879" width="99.601" height="99.691" rx="49.8005" fill="url(#paint0_linear_2_802)"/>
<path d="M33.3499 62.2941V69.9705C33.3499 70.7165 33.9547 71.3213 34.7008 71.3213H40.3414C41.0874 71.3213 41.6922 70.7165 41.6922 69.9705V62.8129L54.9357 67.0323C55.7705 67.3248 56.7217 66.6318 56.6966 65.7453V61.1152H60.7166C61.4626 61.1152 62.0674 60.5104 62.0674 59.7644V58.0817L63.2572 59.2715C63.5106 59.5249 63.8541 59.6673 64.2125 59.6673C64.5707 59.6673 64.9143 59.525 65.1676 59.2715L71.0185 53.4207C71.546 52.8931 71.546 52.0379 71.0185 51.5103L69.8288 50.3205H71.5113C72.2574 50.3205 72.8622 49.7157 72.8622 48.9697V40.6953C72.8622 39.9493 72.2574 39.3445 71.5113 39.3445H69.8288L71.0185 38.1547C71.546 37.6272 71.546 36.7719 71.0185 36.2444L65.1676 30.3935C64.9143 30.1401 64.5707 29.9979 64.2125 29.9979C63.8542 29.9979 63.5107 30.1401 63.2572 30.3935L62.0674 31.5833V29.9007C62.0674 29.1547 61.4626 28.5499 60.7166 28.5499H52.4423C51.6962 28.5499 51.0914 29.1547 51.0914 29.9007V31.5834L49.9016 30.3936C49.6483 30.1402 49.3047 29.998 48.9464 29.998C48.5881 29.998 48.2446 30.1402 47.9913 30.3936L42.1404 36.2444C41.6129 36.772 41.6129 37.6272 42.1404 38.1548L43.3301 39.3446H41.6475C40.9015 39.3446 40.2967 39.9494 40.2967 40.6954L40.2964 48.0349H33.8797C29.9425 48.0349 26.7393 51.2381 26.7393 55.1754C26.7393 58.9343 29.6594 62.0218 33.3499 62.2941ZM56.1429 43.5149C55.7948 43.2605 55.3463 43.1873 54.9357 43.3184L52.6311 44.0527C52.9954 42.2055 54.627 40.8078 56.5794 40.8078C58.7987 40.8078 60.6042 42.6133 60.6042 44.8326C60.6042 47.0127 58.8617 48.7921 56.6966 48.8545V44.6054C56.6966 44.1743 56.491 43.7692 56.1429 43.5149ZM42.9984 42.0463H46.5914C47.1377 42.0463 47.6303 41.7171 47.8394 41.2123C48.0484 40.7076 47.9328 40.1265 47.5465 39.7402L45.006 37.1996L48.9464 33.2591L51.487 35.7998C51.8734 36.1861 52.4543 36.3016 52.9592 36.0926C53.4639 35.8835 53.7931 35.391 53.7931 34.8446V31.2515H59.3658V34.8445C59.3658 35.3909 59.6949 35.8835 60.1997 36.0925C60.7045 36.3015 61.2855 36.186 61.6718 35.7997L64.2124 33.2591L68.1528 37.1997L65.6123 39.7403C65.2259 40.1266 65.1104 40.7077 65.3194 41.2124C65.5285 41.7172 66.0211 42.0463 66.5674 42.0463H70.1603V47.619H66.5674C66.021 47.619 65.5284 47.9482 65.3194 48.453C65.1104 48.9577 65.2259 49.5387 65.6123 49.9251L68.1528 52.4657L64.2124 56.4062L61.6718 53.8655C61.2854 53.4792 60.7045 53.3637 60.1997 53.5727C59.6949 53.7818 59.3658 54.2743 59.3658 54.8207V58.4137H56.6966V51.5562C60.3515 51.4931 63.306 48.5023 63.306 44.8326C63.306 41.1236 60.2885 38.1062 56.5795 38.1062C52.8705 38.1062 49.853 41.1236 49.853 44.8326C49.853 44.8674 49.8551 44.9022 49.8555 44.937L42.9984 47.1218L42.9984 42.0463ZM41.6928 50.3731L53.995 46.4535V63.8972L41.6928 59.9777V50.3731ZM36.0516 50.7366H38.9912V59.6142H36.0516V50.7366ZM36.0516 62.3159H38.9905V68.6197H36.0516V62.3159ZM33.3499 50.7693V59.5814C31.1514 59.3186 29.4409 57.4436 29.4409 55.1754C29.4409 52.9072 31.1514 51.0321 33.3499 50.7693Z" fill="white"/>
<defs>
<linearGradient id="paint0_linear_2_802" x1="2.13765" y1="2.8646" x2="101.762" y2="88.2345" gradientUnits="userSpaceOnUse">
<stop stop-color="#B469EE"/>
<stop offset="0.46" stop-color="#C96D1C"/>
<stop offset="1" stop-color="#4F20DB"/>
</linearGradient>
</defs>
</svg>
